<svg width="400" height="300" viewBox="0 0 400 300" fill="none" xmlns="http://www.w3.org/2000/svg">
<path d="M84.15 174.83V171.38C84.15 170.128 84.6473 168.928 85.5325 168.043C86.4177 167.157 87.6182 166.66 88.87 166.66H93.3C94.5484 166.665 95.7438 167.165 96.6246 168.05C97.5055 168.934 98 170.132 98 171.38V175.09" stroke="#24285B" stroke-width="2" stroke-miterlimit="10"/>
<path d="M141.05 95.9999C144.934 103.74 147.541 112.057 148.77 120.63C149.195 123.349 150.382 125.891 152.192 127.964C154.003 130.036 156.363 131.553 159 132.34L181.73 139L179.94 145L160.54 142.69C143.97 140.69 129.92 129.03 125.7 112.88C124.28 107.46 124.03 101.88 126.01 96.7299C126.599 95.2574 127.599 93.9851 128.891 93.0645C130.183 92.1438 131.711 91.6135 133.296 91.5366C134.88 91.4597 136.453 91.8395 137.828 92.6307C139.202 93.422 140.321 94.5914 141.05 95.9999V95.9999Z" fill="#276EF1"/>
<path opacity="0.08" d="M141.05 95.9999C144.934 103.74 147.541 112.057 148.77 120.63C149.195 123.349 150.382 125.891 152.192 127.964C154.003 130.036 156.363 131.553 159 132.34L181.73 139L179.94 145L160.54 142.69C143.97 140.69 129.92 129.03 125.7 112.88C124.28 107.46 124.03 101.88 126.01 96.7299C126.599 95.2574 127.599 93.9851 128.891 93.0645C130.183 92.1438 131.711 91.6135 133.296 91.5366C134.88 91.4597 136.453 91.8395 137.828 92.6307C139.202 93.422 140.321 94.5914 141.05 95.9999V95.9999Z" fill="black"/>
<path d="M296.07 49.7202H291.47V124.52H296.07V49.7202Z" fill="#276EF1"/>
<path opacity="0.45" d="M199.16 274.83C294.705 274.83 372.16 269.874 372.16 263.76C372.16 257.646 294.705 252.69 199.16 252.69C103.615 252.69 26.16 257.646 26.16 263.76C26.16 269.874 103.615 274.83 199.16 274.83Z" fill="#E6E6E6"/>
<path d="M160.31 194.46C160.31 194.46 161.88 196.84 164.31 196.46C166.74 196.08 167.88 198.24 165.91 199.35C163.94 200.46 157.83 199.06 157.83 199.06L156.98 194.71L160.31 194.46Z" fill="#276EF1"/>
<path d="M90.26 214.14C90.26 214.14 88.9 216.64 90.36 218.59C91.82 220.54 90.47 222.59 88.56 221.36C86.65 220.13 85 214.1 85 214.1L88.44 211.3L90.26 214.14Z" fill="#276EF1"/>
<path d="M139.37 222.81H77.58V261.59H139.37V222.81Z" fill="#E6E6E6"/>
<path d="M201.16 199.8H139.37V261.59H201.16V199.8Z" fill="#E6E6E6"/>
<path d="M262.95 164.57H201.16V261.59H262.95V164.57Z" fill="#E6E6E6"/>
<path d="M324.22 127.34H262.43V261.59H324.22V127.34Z" fill="#E6E6E6"/>
<path d="M122 66.8602C122.467 69.1623 122.619 71.5173 122.45 73.8602C122.414 74.1358 122.324 74.4015 122.185 74.6418C122.045 74.8821 121.86 75.0922 121.638 75.2598C121.416 75.4274 121.163 75.5492 120.894 75.6179C120.625 75.6867 120.345 75.701 120.07 75.6602C119.179 75.5861 118.328 75.2573 117.619 74.713C116.91 74.1686 116.372 73.4317 116.07 72.5902L114.41 69.0902C114.149 68.3547 114.123 67.5561 114.337 66.8053C114.55 66.0546 114.991 65.3887 115.6 64.9002C117.7 62.9002 121.58 64.3302 122 66.8602Z" fill="#F4A28C"/>
<path d="M114.65 69.6899L114.04 83.4399L121.64 83.2299L119.03 73.3099L114.65 69.6899Z" fill="#F4A28C"/>
<path d="M117.94 70.9399C117.94 70.9399 117.72 69.3399 116.53 69.5999C115.34 69.8599 115.63 72.1799 117.3 72.2099L117.94 70.9399Z" fill="#F4A28C"/>
<path d="M122.36 69.48L123.7 71C123.776 71.0836 123.829 71.1849 123.855 71.2945C123.881 71.4042 123.879 71.5186 123.849 71.6273C123.819 71.736 123.762 71.8354 123.684 71.9162C123.605 71.9971 123.508 72.0569 123.4 72.09L121.84 72.57L122.36 69.48Z" fill="#F4A28C"/>
<path opacity="0.31" d="M119.69 75.4598C118.727 75.3275 117.824 74.9175 117.09 74.2798C117.599 76.2046 118.822 77.8635 120.51 78.9198L119.69 75.4598Z" fill="#CE8172"/>
<path d="M306.02 116.54H282.02V127.34H306.02V116.54Z" fill="#24285B"/>
<path d="M291.46 49.7202H244.57V84.2702H291.46V49.7202Z" fill="#FFD200"/>
<path d="M268.02 76.4498C273.239 76.4498 277.47 72.2189 277.47 66.9998C277.47 61.7807 273.239 57.5498 268.02 57.5498C262.801 57.5498 258.57 61.7807 258.57 66.9998C258.57 72.2189 262.801 76.4498 268.02 76.4498Z" fill="#24285B"/>
<path d="M306.02 232.36H282.02V261.59H306.02V232.36Z" fill="#276EF1"/>
<path opacity="0.19" d="M282.7 139.77H275.89V219.09H282.7V139.77Z" fill="#A5A5A5"/>
<path opacity="0.19" d="M298.19 139.77H291.38V219.09H298.19V139.77Z" fill="#A5A5A5"/>
<path opacity="0.19" d="M313.68 139.77H306.87V219.09H313.68V139.77Z" fill="#A5A5A5"/>
<path opacity="0.19" d="M262.43 164.57H249.68V261.59H262.43V164.57Z" fill="#A5A5A5"/>
<path opacity="0.19" d="M200.9 199.97H188.15V261.59H200.9V199.97Z" fill="#A5A5A5"/>
<path opacity="0.19" d="M138.87 223.6H126.12V261.6H138.87V223.6Z" fill="#A5A5A5"/>
<path d="M100.28 151.21C100.28 151.21 97.28 164.33 106.19 166.88C110.33 168.07 120.19 167.22 129.51 165.98C135.191 165.234 140.939 166.734 145.532 170.161C150.124 173.588 153.198 178.671 154.1 184.33L155.72 194.46H160.23V176.08C160.231 169.682 157.713 163.541 153.222 158.984C148.731 154.428 142.627 151.822 136.23 151.73L100.28 151.21Z" fill="#24285B"/>
<path d="M105 158.27L102.84 172.51C101.03 184.418 96.6815 195.799 90.09 205.88L86.18 211.88L91 215L93.16 212.91C105.241 201.292 114.256 186.862 119.4 170.91L122.63 160.91L105 158.27Z" fill="#24285B"/>
<path d="M114.55 71.84L113.09 66.22C113.09 66.22 110.69 64.68 112.43 62.92C114.17 61.16 115.59 62.59 117.01 60.07C117.208 59.6058 117.542 59.2127 117.968 58.9426C118.395 58.6726 118.893 58.5385 119.397 58.558C119.901 58.5775 120.388 58.7498 120.792 59.0519C121.196 59.3541 121.499 59.7719 121.66 60.25C122.21 61.93 126.05 61.39 125.28 63.85C124.51 66.31 121.04 66.43 120.06 66.46C115.76 66.58 119.46 72.3 114.55 71.84Z" fill="#24285B"/>
<path d="M115.26 83.1002L116.79 82.8302C120.28 82.1733 123.875 82.3392 127.289 83.3148C130.704 84.2904 133.844 86.0487 136.46 88.4502C138.701 90.5576 140.478 93.1084 141.68 95.9402C147.04 108.45 131.22 151.66 131.22 151.66L100.28 151.21C100.28 151.21 79.39 86.8602 115.26 83.1002Z" fill="#276EF1"/>
<path opacity="0.08" d="M125.38 94.6599C125.392 98.7743 124.368 102.826 122.402 106.44C120.435 110.054 117.591 113.115 114.13 115.34C102.13 123.26 115.8 151.66 115.8 151.66L100.28 151.21C100.28 151.21 94.93 133 94.65 123.32C94.37 113.64 98.61 94.3299 125.38 94.6599Z" fill="black"/>
<path d="M111.32 83.7599C114.018 83.1223 116.851 83.4038 119.37 84.5599C122.25 85.9399 125.17 88.7799 125.37 94.6599C125.79 106.43 82.45 99.0699 92.66 161.5L85.8 163.2C85.8 163.2 62.72 94.5699 111.32 83.7599Z" fill="#276EF1"/>
<path opacity="0.46" d="M111.32 83.7599C114.018 83.1223 116.851 83.4038 119.37 84.5599C122.25 85.9399 125.17 88.7799 125.37 94.6599C125.79 106.43 82.45 99.0699 92.66 161.5L85.8 163.2C85.8 163.2 62.72 94.5699 111.32 83.7599Z" fill="white"/>
<path d="M87.32 162.83C87.32 162.83 87.82 168.73 90.54 168.9C93.26 169.07 96.67 167.71 92.67 161.5L87.32 162.83Z" fill="#F4A28C"/>
<path d="M181.44 140C181.44 140 185.98 140.53 187.51 143.47C189.04 146.41 180.2 144.13 180.2 144.13L181.44 140Z" fill="#F4A28C"/>
<path d="M108.48 173.47H74.77V195.43H108.48V173.47Z" fill="#FFD200"/>
<path opacity="0.08" d="M74.77 183.77C74.77 183.77 87.4 194.62 108.48 191.43V195.43H74.77V183.77Z" fill="black"/>
<path opacity="0.46" d="M299.18 250.99C300.29 250.99 301.19 250.09 301.19 248.98C301.19 247.87 300.29 246.97 299.18 246.97C298.07 246.97 297.17 247.87 297.17 248.98C297.17 250.09 298.07 250.99 299.18 250.99Z" fill="white"/>
<path opacity="0.08" d="M291.38 61.1201C291.38 61.1201 290.53 84.3601 254.28 84.2801H291.47L291.38 61.1201Z" fill="black"/>
<path d="M271.263 73C271.06 73 270.857 72.9494 270.673 72.8466L267.999 71.3612L265.325 72.8466C264.917 73.0735 264.413 73.0473 264.033 72.7764C263.651 72.5054 263.456 72.0402 263.531 71.5783L264.056 68.3496L261.846 66.0725C261.528 65.7445 261.417 65.2646 261.564 64.8287C261.708 64.3929 262.082 64.0779 262.535 64.0077L265.543 63.5458L266.897 60.6452C267.297 59.7849 268.703 59.7849 269.102 60.6452L270.457 63.5458L273.464 64.0077C273.916 64.0762 274.291 64.3929 274.436 64.8287C274.582 65.2646 274.473 65.7445 274.153 66.0725L271.942 68.3496L272.467 71.5783C272.542 72.0402 272.348 72.5054 271.965 72.7764C271.755 72.9249 271.508 73 271.263 73V73Z" fill="#D5E8FE"/>
</svg>
